<?xml version="1.0" encoding="UTF-8" standalone="no"?>
<svg
   xmlns:dc="http://purl.org/dc/elements/1.1/"
   xmlns:cc="http://creativecommons.org/ns#"
   xmlns:rdf="http://www.w3.org/1999/02/22-rdf-syntax-ns#"
   xmlns:svg="http://www.w3.org/2000/svg"
   xmlns="http://www.w3.org/2000/svg"
   viewBox="0 0 533.33331 199.39999"
   height="199.39999"
   width="533.33331"
   xml:space="preserve"
   id="svg2"
   version="1.1"><metadata
     id="metadata8"><rdf:RDF><cc:Work
         rdf:about=""><dc:format>image/svg+xml</dc:format><dc:type
           rdf:resource="http://purl.org/dc/dcmitype/StillImage" /></cc:Work></rdf:RDF></metadata><defs
     id="defs6" /><g
     transform="matrix(1.3333333,0,0,-1.3333333,0,199.4)"
     id="g10"><g
       transform="scale(0.1)"
       id="g12"><path
         id="path14"
         style="fill:#FFFFFF;fill-opacity:1;fill-rule:nonzero;stroke:none"
         d="m 3689.89,430.289 c -63.86,93.871 -141.39,179.781 -219.98,261.324 -172.59,179.117 -359.58,333.667 -573.97,459.607 -296.03,173.93 -593.89,284.57 -934.73,325.23 -423.5,50.51 -883.27,2.37 -1276.081,-168.03 C 432.98,1199.04 198.402,1020.31 75.4336,769.211 -13.0859,588.449 -29.6094,376.93 57.6289,192.672 71.3516,163.691 90.832,135.328 113.613,112.719 c 16.922,-16.7971 24.75,-11.789 14.399,10.07 -108.5901,229.383 -20.754,500.484 124.793,691.313 237.461,311.388 632.41,458.828 1005.455,524.328 401.68,70.52 816.12,53.07 1207.01,-65.34 294.13,-89.11 525.89,-235.46 768.81,-423.078 68.25,-52.715 133.82,-108.907 196.45,-168.196 52.54,-49.726 98.87,-97.683 141.13,-145.183 16.72,-18.801 86.48,-104.735 90.61,-110.262 9.94,-13.269 45.92,-67.531 57.04,-59.762 11.21,7.86 -25.51,57.942 -29.42,63.68" /><path
         id="path16"
         style="fill:#FFFFFF;fill-opacity:1;fill-rule:nonzero;stroke:none"
         d="m 363.715,849.09 h 64.609 V 541.574 H 363.715 V 849.09" /><path
         id="path18"
         style="fill:#FFFFFF;fill-opacity:1;fill-rule:nonzero;stroke:none"
         d="m 607.602,541.574 v 147.332 c 0,25.664 -4.422,33.184 -19.911,33.184 -11.945,0 -27.421,-7.969 -41.16,-20.34 V 541.574 h -59.285 v 164.149 c 0,19.465 -2.644,38.058 -7.961,53.093 l 52.656,15.055 c 5.309,-9.301 8.407,-19.027 8.407,-28.332 8.84,6.199 16.375,11.512 26.113,16.82 11.941,6.192 27.43,9.727 40.703,9.727 25.219,0 47.352,-13.27 54.418,-32.731 3.106,-8.406 4.43,-18.144 4.43,-32.304 V 541.574 h -58.41" /><path
         id="path20"
         style="fill:#FFFFFF;fill-opacity:1;fill-rule:nonzero;stroke:none"
         d="m 794.137,534.484 c -27.883,0 -58.418,8.848 -91.598,26.121 l 21.246,43.36 c 18.133,-11.063 49.551,-25.664 75.207,-25.664 16.821,0 30.086,11.054 30.086,25.664 0,15.48 -11.055,23.437 -34.941,27.851 l -26.555,4.875 c -15.043,2.664 -33.621,13.27 -41.59,23.008 -7.969,9.754 -12.832,26.121 -12.832,40.711 0,44.258 34.953,73.895 87.606,73.895 36.281,0 60.179,-11.063 80.972,-21.239 L 862.27,713.242 c -22.567,11.504 -38.93,16.367 -55.743,16.367 -17.265,0 -28.761,-8.847 -28.761,-22.129 0,-11.484 7.511,-17.695 28.308,-22.996 l 27.434,-7.089 c 27.879,-7.063 37.172,-15.489 45.137,-25.645 8.406,-10.637 12.394,-23.449 12.394,-38.496 0,-46.926 -38.934,-78.77 -96.902,-78.77" /><path
         id="path22"
         style="fill:#FFFFFF;fill-opacity:1;fill-rule:nonzero;stroke:none"
         d="m 999.645,536.262 c -30.09,0 -53.981,13.269 -61.059,33.183 -3.547,9.735 -3.996,14.149 -3.996,34.942 v 123.015 h -22.555 v 40.715 h 22.555 c 0,22.129 0,36.723 2.223,53.539 l 60.179,15.035 c -2.211,-20.793 -3.551,-45.574 -3.551,-68.574 h 53.109 L 1031.5,727.402 H 993.441 V 613.691 c 0,-28.75 5.321,-36.289 25.679,-36.289 5.3,0 10.61,1.328 21.23,4.414 l 7.52,-35.39 c -17.25,-7.071 -32.74,-10.164 -48.225,-10.164" /><path
         id="path24"
         style="fill:#FFFFFF;fill-opacity:1;fill-rule:nonzero;stroke:none"
         d="m 1110.7,793.781 c -19.91,0 -36.29,16.367 -36.29,36.735 0,20.336 16.82,36.726 37.17,36.726 19.9,0 35.84,-16.39 35.84,-36.726 0,-20.368 -16.37,-36.735 -36.72,-36.735 m -29.65,-252.207 v 222.555 l 59.28,9.301 V 541.574 h -59.28" /><path
         id="path26"
         style="fill:#FFFFFF;fill-opacity:1;fill-rule:nonzero;stroke:none"
         d="m 1263.34,536.262 c -30.08,0 -53.98,13.269 -61.06,33.183 -3.54,9.735 -3.98,14.149 -3.98,34.942 v 123.015 h -22.56 v 40.715 h 22.56 c 0,22.129 0,36.723 2.2,53.539 l 60.18,15.035 c -2.2,-20.793 -3.54,-45.574 -3.54,-68.574 h 53.11 l -15.04,-40.715 h -38.07 V 613.691 c 0,-28.75 5.33,-36.289 25.67,-36.289 5.31,0 10.61,1.328 21.24,4.414 l 7.52,-35.39 c -17.26,-7.071 -32.75,-10.164 -48.23,-10.164" /><path
         id="path28"
         style="fill:#FFFFFF;fill-opacity:1;fill-rule:nonzero;stroke:none"
         d="m 1492.1,535.371 c -7.52,5.313 -13.72,12.832 -17.7,22.109 -14.61,-14.14 -35.85,-21.66 -59.74,-21.66 -31.86,0 -59.29,15.032 -66.82,36.719 -3.53,10.176 -4.87,22.129 -4.87,45.129 v 145.137 l 58.42,11.066 v -145.57 c 0,-20.36 1.77,-30.977 4.86,-37.188 3.11,-6.172 11.95,-10.605 20.81,-10.605 14.6,0 32.3,10.605 36.72,21.672 v 159.3 l 56.64,11.95 V 600.422 c 0,-15.051 4.87,-30.539 13.72,-41.152 l -42.04,-23.899" /><path
         id="path30"
         style="fill:#FFFFFF;fill-opacity:1;fill-rule:nonzero;stroke:none"
         d="m 1645.04,536.262 c -30.09,0 -53.99,13.269 -61.07,33.183 -3.54,9.735 -3.98,14.149 -3.98,34.942 v 123.015 h -22.56 v 40.715 h 22.56 c 0,22.129 0,36.723 2.22,53.539 l 60.17,15.035 c -2.21,-20.793 -3.54,-45.574 -3.54,-68.574 h 53.11 l -15.06,-40.715 h -38.05 V 613.691 c 0,-28.75 5.32,-36.289 25.67,-36.289 5.3,0 10.62,1.328 21.24,4.414 l 7.52,-35.39 c -17.26,-7.071 -32.74,-10.164 -48.23,-10.164" /><path
         id="path32"
         style="fill:#FFFFFF;fill-opacity:1;fill-rule:nonzero;stroke:none"
         d="m 1941.48,818.547 c -12.83,6.211 -17.26,7.539 -24.34,7.539 -15.04,0 -24.78,-9.297 -24.78,-25.664 v -32.305 h 57.52 l -15.04,-40.715 h -42.03 V 541.574 h -57.97 v 185.828 h -20.35 v 40.715 h 21.68 c -1.33,9.281 -2.21,20.789 -2.21,30.977 0,44.687 26.54,70.355 73.01,70.355 19.46,0 35.4,-4 53.53,-14.168 l -19.02,-36.734" /><path
         id="path34"
         style="fill:#FFFFFF;fill-opacity:1;fill-rule:nonzero;stroke:none"
         d="m 2123.69,535.371 c -7.53,5.313 -13.73,12.832 -17.7,22.109 -14.61,-14.14 -35.85,-21.66 -59.74,-21.66 -31.85,0 -59.29,15.032 -66.82,36.719 -3.53,10.176 -4.87,22.129 -4.87,45.129 v 145.137 l 58.42,11.066 v -145.57 c 0,-20.36 1.77,-30.977 4.86,-37.188 3.1,-6.172 11.95,-10.605 20.8,-10.605 14.61,0 32.3,10.605 36.73,21.672 v 159.3 l 56.64,11.95 V 600.422 c 0,-15.051 4.86,-30.539 13.71,-41.152 z m -108.42,253.086 c -18.14,0 -33.63,15.488 -33.63,34.082 0,18.578 15.93,34.063 34.52,34.063 18.14,0 33.19,-15.485 33.19,-34.063 0,-18.594 -15.49,-34.082 -34.08,-34.082 m 95.58,0 c -18.14,0 -33.64,15.488 -33.64,34.082 0,18.578 15.94,34.063 34.53,34.063 18.15,0 33.18,-15.485 33.18,-34.063 0,-18.594 -15.49,-34.082 -34.07,-34.082" /><path
         id="path36"
         style="fill:#FFFFFF;fill-opacity:1;fill-rule:nonzero;stroke:none"
         d="m 2321.41,716.34 c -5.76,3.105 -10.61,4.422 -17.26,4.422 -13.27,0 -25.22,-6.192 -36.28,-19.012 V 541.574 h -59.29 v 151.309 c 0,30.535 -3.54,53.543 -8.41,66.387 l 53.1,14.16 c 5.31,-9.301 8.41,-19.465 9.29,-32.317 12.85,17.278 30.98,32.317 53.09,32.317 8.86,0 12.84,-0.895 22.14,-4.879 l -16.38,-52.211" /><path
         id="path38"
         style="fill:#FFFFFF;fill-opacity:1;fill-rule:nonzero;stroke:none"
         d="M 557.523,145.141 C 538.945,119.91 511.508,103.102 482.742,100.879 471.238,100 456.637,99.1211 438.5,99.1211 H 363.715 V 406.641 h 61.953 c 17.699,0 41.145,-0.879 53.527,-1.782 26.11,-2.211 48.688,-11.937 67.258,-30.507 28.328,-27.883 42.047,-67.282 42.047,-122.582 0,-42.032 -10.184,-78.758 -30.977,-106.629 m -53.992,187.168 c -10.172,16.812 -24.336,25.671 -48.66,25.671 H 426.543 V 149.551 h 33.187 c 40.708,0 59.301,31.418 59.301,96.461 0,35.847 -3.101,65.918 -15.5,86.297" /><path
         id="path40"
         style="fill:#FFFFFF;fill-opacity:1;fill-rule:nonzero;stroke:none"
         d="m 664.098,351.34 c -19.914,0 -36.285,16.359 -36.285,36.73 0,20.328 16.816,36.719 37.167,36.719 19.915,0 35.848,-16.391 35.848,-36.719 0,-20.371 -16.379,-36.73 -36.73,-36.73 M 634.449,99.1211 V 321.68 l 59.285,9.3 V 99.1211 h -59.285" /><path
         id="path42"
         style="fill:#FFFFFF;fill-opacity:1;fill-rule:nonzero;stroke:none"
         d="m 886.266,99.1211 c -1.786,3.5509 -2.657,7.0699 -3.551,13.2769 -14.602,-12.8472 -31.856,-19.0269 -52.211,-19.0269 -57.52,0 -93.805,44.6989 -93.805,115.0269 0,70.813 39.375,119.481 96.91,119.481 16.368,0 29.2,-3.988 40.254,-12.84 -0.879,4.871 -1.761,20.359 -1.761,33.633 v 77.867 l 58.839,-9.289 V 181.859 c 0,-55.757 4.43,-73.89 8.411,-82.7379 z M 872.984,265.941 c -11.058,9.731 -21.679,14.59 -32.3,14.59 -26.547,0 -38.063,-22.121 -38.063,-72.562 0,-48.668 10.192,-64.598 41.152,-64.598 11.063,0 23.457,7.508 29.211,14.598 v 107.972" /><path
         id="path44"
         style="fill:#FFFFFF;fill-opacity:1;fill-rule:nonzero;stroke:none"
         d="m 1143.05,87.6211 c -13.72,5.75 -26.11,15.9179 -31.86,27.4299 -4.43,-4.43 -9.29,-8.86 -13.71,-11.949 -11.06,-7.9614 -27,-12.4028 -45.58,-12.4028 -50.44,0 -77.88,25.6718 -77.88,70.8128 0,53.097 36.73,77.867 108.85,77.867 4.42,0 8.41,0 13.27,-0.438 v 9.278 c 0,25.242 -4.86,33.64 -26.54,33.64 -19.03,0 -41.15,-9.289 -65.48,-25.668 l -25.229,42.481 c 11.949,7.519 20.797,11.949 36.719,18.59 22.13,9.277 41.16,13.269 61.95,13.269 38.06,0 64.16,-14.152 73,-39.383 3.11,-9.289 4.43,-16.359 3.99,-40.707 l -1.33,-76.101 c -0.44,-24.789 1.33,-35.391 21.24,-50.449 z m -50.44,110.6169 c -41.15,0 -55.32,-7.539 -55.32,-34.508 0,-17.699 11.06,-29.66 26.11,-29.66 11.07,0 22.13,5.762 30.97,15.481 l 0.89,48.687 h -2.65" /><path
         id="path46"
         style="fill:#FFFFFF;fill-opacity:1;fill-rule:nonzero;stroke:none"
         d="M 1210.82,99.1211 V 354.43 c 0,19.91 -0.43,35.398 -3.99,58.84 l 59.75,14.609 c 2.65,-16.809 3.52,-43.367 3.52,-73.449 V 99.1211 Z m 136.72,0 -76.1,128.3089 57.96,98.25 h 71.24 l -72.13,-94.7 88.94,-131.8589 h -69.91" /><path
         id="path48"
         style="fill:#FFFFFF;fill-opacity:1;fill-rule:nonzero;stroke:none"
         d="m 1511.72,93.8086 c -30.08,0 -53.98,13.2814 -61.06,33.1914 -3.54,9.73 -3.98,14.148 -3.98,34.93 v 123.011 h -22.56 v 40.739 h 22.56 c 0,22.109 0,36.711 2.21,53.531 l 60.18,15.039 c -2.21,-20.789 -3.54,-45.578 -3.54,-68.57 h 53.1 l -15.04,-40.739 h -38.06 V 171.25 c 0,-28.77 5.32,-36.301 25.66,-36.301 5.31,0 10.62,1.332 21.24,4.43 l 7.52,-35.399 c -17.26,-7.0698 -32.74,-10.1714 -48.23,-10.1714" /><path
         id="path50"
         style="fill:#FFFFFF;fill-opacity:1;fill-rule:nonzero;stroke:none"
         d="m 1622.78,351.34 c -19.91,0 -36.29,16.359 -36.29,36.73 0,20.328 16.82,36.719 37.17,36.719 19.91,0 35.84,-16.391 35.84,-36.719 0,-20.371 -16.37,-36.73 -36.72,-36.73 M 1593.13,99.1211 V 321.68 l 59.29,9.3 V 99.1211 h -59.29" /><path
         id="path52"
         style="fill:#FFFFFF;fill-opacity:1;fill-rule:nonzero;stroke:none"
         d="M 1708.78,99.1211 V 354.43 c 0,19.91 -0.43,35.398 -3.98,58.84 l 59.75,14.609 c 2.65,-16.809 3.52,-43.367 3.52,-73.449 V 99.1211 Z m 136.73,0 -76.1,128.3089 57.96,98.25 h 71.24 l -72.13,-94.7 88.94,-131.8589 h -69.91" /><path
         id="path54"
         style="fill:#FFFFFF;fill-opacity:1;fill-rule:nonzero;stroke:none"
         d="m 2177.79,99.1211 c -1.78,3.5509 -2.65,7.0699 -3.55,13.2769 -14.6,-12.8472 -31.84,-19.0269 -52.21,-19.0269 -57.51,0 -93.8,44.6989 -93.8,115.0269 0,70.813 39.38,119.481 96.9,119.481 16.38,0 29.2,-3.988 40.28,-12.84 -0.89,4.871 -1.79,20.359 -1.79,33.633 v 77.867 l 58.86,-9.289 V 181.859 c 0,-55.757 4.42,-73.89 8.4,-82.7379 z m -13.27,166.8199 c -11.06,9.731 -21.68,14.59 -32.31,14.59 -26.54,0 -38.04,-22.121 -38.04,-72.562 0,-48.668 10.16,-64.598 41.13,-64.598 11.06,0 23.46,7.508 29.22,14.598 v 107.972" /><path
         id="path56"
         style="fill:#FFFFFF;fill-opacity:1;fill-rule:nonzero;stroke:none"
         d="m 2330.73,193.801 v -1.762 c 0,-34.949 17.26,-54.867 47.79,-54.867 20.35,0 39.39,7.539 57.52,22.566 l 23.01,-35.398 c -26.1,-21.231 -53.55,-31.4298 -85.39,-31.4298 -65.06,0 -107.08,46.0388 -107.08,117.2698 0,40.699 8.41,67.699 28.32,89.832 18.57,20.789 41.14,30.519 71.23,30.519 26.11,0 50.89,-8.851 65.5,-23.89 20.78,-21.243 30.07,-51.762 30.07,-99.121 v -13.719 z m 69.47,46.027 c 0,16.813 -1.77,25.66 -7.08,34.063 -5.75,8.847 -14.16,13.269 -26.1,13.269 -22.57,0 -35.4,-17.699 -35.4,-49.101 v -0.887 h 68.58 v 2.656" /><path
         id="path58"
         style="fill:#FFFFFF;fill-opacity:1;fill-rule:nonzero;stroke:none"
         d="m 2616.51,273.891 c -5.75,3.109 -10.63,4.418 -17.26,4.418 -13.28,0 -25.22,-6.18 -36.28,-19 V 99.1211 h -59.3 V 250.441 c 0,30.539 -3.53,53.539 -8.4,66.379 l 53.1,14.16 c 5.31,-9.3 8.41,-19.468 9.29,-32.308 12.83,17.258 30.98,32.308 53.1,32.308 8.84,0 12.84,-0.89 22.13,-4.89 l -16.38,-52.199" /><path
         id="path60"
         style="fill:#FFFFFF;fill-opacity:1;fill-rule:nonzero;stroke:none"
         d="m 2918.71,222.578 c -14.16,-6.637 -27.44,-10.18 -61.52,-10.18 h -34.06 V 99.1211 h -61.95 V 406.641 h 80.97 c 52.21,0 68.15,-5.313 85.4,-15.063 28.76,-15.898 44.24,-44.238 44.24,-79.648 0,-40.68 -19.46,-73.43 -53.08,-89.352 m -56.2,134.063 h -39.38 v -93.813 h 32.29 c 25.23,0 32.75,3.113 41.16,15.942 5.31,8.402 7.53,17.25 7.53,31.851 0,28.758 -15.49,46.02 -41.6,46.02" /><path
         id="path62"
         style="fill:#FFFFFF;fill-opacity:1;fill-rule:nonzero;stroke:none"
         d="M 3137.31,99.1211 V 251.328 c 0,22.563 -6.19,30.981 -23,30.981 -14.61,0 -33.63,-8.848 -46.91,-20.797 V 99.1211 h -60.18 V 361.078 c 0,21.223 -1.77,42.473 -4.42,51.75 L 3063.42,427 c 2.65,-12.391 3.98,-33.629 3.98,-55.328 v -45.121 c 0,-7.09 -0.89,-16.371 -0.89,-19.031 15.5,14.609 41.15,24.339 64.17,24.339 28.76,0 51.77,-12.398 58.84,-32.308 4.43,-12.813 5.77,-20.34 5.77,-42.031 V 99.1211 h -57.98" /><path
         id="path64"
         style="fill:#FFFFFF;fill-opacity:1;fill-rule:nonzero;stroke:none"
         d="M 3361.19,95.5781 C 3345.71,51.7695 3334.2,32.7617 3317.84,20.7891 3302.79,9.73828 3283.31,2.67969 3262.96,0 l -20.35,38.9492 c 12.83,3.5313 27.88,8.8399 36.73,15.0313 6.63,4.8711 11.93,11.0586 16.8,18.5976 5.76,9.2813 7.54,13.2735 12.83,26.543 h -15.04 c -7.07,21.2499 -19.02,56.6409 -21.23,63.7069 l -53.53,159.301 60.61,7.082 39.38,-132.289 c 3.54,-13.281 11.06,-43.813 11.95,-46.922 0,1.34 4.41,25.219 7.08,36.281 1.76,7.528 5.31,20.809 8.84,31.43 l 34.07,107.969 h 62.4 L 3361.19,95.5781" /><path
         id="path66"
         style="fill:#FFFFFF;fill-opacity:1;fill-rule:nonzero;stroke:none"
         d="m 3540.73,92.0313 c -27.88,0 -58.41,8.8597 -91.6,26.1167 l 21.25,43.364 c 18.13,-11.063 49.56,-25.672 75.22,-25.672 16.81,0 30.08,11.07 30.08,25.672 0,15.488 -11.06,23.437 -34.95,27.867 l -26.56,4.859 c -15.03,2.684 -33.61,13.282 -41.58,23.012 -7.98,9.75 -12.84,26.121 -12.84,40.719 0,44.25 34.96,73.89 87.62,73.89 36.29,0 60.17,-11.058 80.96,-21.25 l -19.47,-39.808 c -22.56,11.508 -38.92,16.371 -55.75,16.371 -17.26,0 -28.75,-8.863 -28.75,-22.133 0,-11.488 7.51,-17.699 28.32,-23 l 27.42,-7.098 c 27.88,-7.062 37.17,-15.48 45.14,-25.64 8.41,-10.629 12.4,-23.449 12.4,-38.5 0,-46.91 -38.94,-78.7697 -96.91,-78.7697" /><path
         id="path68"
         style="fill:#FFFFFF;fill-opacity:1;fill-rule:nonzero;stroke:none"
         d="M 3677.7,99.1211 V 321.68 l 59.3,9.3 V 99.1211 h -59.3" /><path
         id="path70"
         style="fill:#FFFFFF;fill-opacity:1;fill-rule:nonzero;stroke:none"
         d="M 3793.36,99.1211 V 354.43 c 0,19.91 -0.44,35.398 -3.99,58.84 l 59.76,14.609 c 2.64,-16.809 3.52,-43.367 3.52,-73.449 V 99.1211 Z m 136.72,0 -76.1,128.3089 57.97,98.25 h 71.24 L 3911.05,230.98 4000,99.1211 h -69.92" /></g></g></svg>